<svg width="150" height="150" viewBox="0 0 150 150" fill="none" xmlns="http://www.w3.org/2000/svg">
<circle cx="75" cy="75" r="75" fill="#E3D7D2"/>
<circle cx="75" cy="75" r="75" fill="url(#paint0_radial_7623_3941)"/>
<mask id="mask0_7623_3941" style="mask-type:alpha" maskUnits="userSpaceOnUse" x="0" y="0" width="150" height="150">
<circle cx="75" cy="75" r="75" fill="#C4C4C4"/>
</mask>
<g mask="url(#mask0_7623_3941)">
<path d="M95.4275 109.555L74.9984 126.759L54.5695 109.555C43.9927 100.649 37.8879 87.5264 37.8879 73.6991V68.163C37.8877 47.6675 54.5027 31.0525 74.9984 31.0525C95.4941 31.0525 112.109 47.6675 112.109 68.163V73.6991C112.109 87.5267 106.004 100.649 95.4275 109.555Z" fill="url(#paint1_linear_7623_3941)"/>
<path d="M113.463 120.378L92.8776 114.323C90.3839 113.59 88.6713 111.301 88.6713 108.702V99.4141H61.3263V108.702C61.3263 111.301 59.6139 113.59 57.1199 114.323L36.5344 120.378C31.547 121.845 28.1219 126.422 28.1219 131.621V146.291C28.1219 149.527 30.7454 152.15 33.9815 152.15H116.016C119.252 152.15 121.875 149.527 121.875 146.291V131.621C121.875 126.422 118.45 121.845 113.463 120.378Z" fill="url(#paint2_linear_7623_3941)"/>
<path d="M113.463 120.378L92.8776 114.324C92.5296 114.222 92.201 114.082 91.886 113.923L74.9982 126.759L58.1123 113.923C57.7972 114.082 57.4687 114.222 57.1207 114.324L36.5344 120.378C31.547 121.845 28.1219 126.423 28.1219 131.621V146.291C28.1219 149.527 30.7454 152.151 33.9815 152.151H116.016C119.252 152.151 121.875 149.527 121.875 146.291V131.621C121.875 126.423 118.45 121.845 113.463 120.378Z" fill="url(#paint3_linear_7623_3941)"/>
<path d="M61.3262 103.773C65.4297 105.965 70.083 107.227 74.9986 107.227C79.9142 107.227 84.5675 105.965 88.671 103.773V99.4141H61.3262V103.773Z" fill="url(#paint4_linear_7623_3941)"/>
<path d="M101.367 70.1165H100.39V48.6313H49.607V70.1165H48.6305C45.9338 70.1165 43.7477 72.3026 43.7477 74.9994C43.7477 77.6962 45.9338 79.8822 48.6305 79.8822H49.7058C50.7063 92.9898 61.6346 103.321 74.9986 103.321C88.3626 103.321 99.2908 92.9898 100.291 79.8822H101.367C104.063 79.8822 106.249 77.6959 106.249 74.9994C106.25 72.3026 104.063 70.1165 101.367 70.1165Z" fill="url(#paint5_linear_7623_3941)"/>
<path d="M100.39 48.6313H49.6071V70.1165H48.9094C46.3551 70.1165 44.0275 71.9543 43.773 74.4956C43.4802 77.4186 45.7675 79.8825 48.6306 79.8825H49.7059C50.7064 92.9901 61.6346 103.321 74.9986 103.321C76.3346 103.321 77.6375 103.191 78.9173 102.992C66.7475 101.114 57.4199 90.6249 57.4199 77.9293V63.8974C57.4199 61.3513 59.8045 59.5082 62.2765 60.1174C65.4441 60.898 68.7586 61.5522 72.1627 62.0004C72.397 62.0312 72.6284 62.0458 72.8556 62.0458C74.604 62.0458 76.2363 61.1751 77.2217 59.7168C77.9593 58.6249 78.2564 57.3177 78.086 56.0447C83.9939 57.5812 92.8788 60.9453 100.39 67.9295V48.6313H100.39Z" fill="url(#paint6_linear_7623_3941)"/>
<path d="M63.2794 76.1455C62.1999 76.1455 61.3262 75.2709 61.3262 74.1923V72.2391C61.3262 71.1605 62.1999 70.2859 63.2794 70.2859C64.359 70.2859 65.2326 71.1605 65.2326 72.2391V74.1923C65.2326 75.2709 64.359 76.1455 63.2794 76.1455Z" fill="url(#paint7_radial_7623_3941)"/>
<path d="M86.7177 76.1455C85.6381 76.1455 84.7645 75.2709 84.7645 74.1923V72.2391C84.7645 71.1605 85.6381 70.2859 86.7177 70.2859C87.7973 70.2859 88.6709 71.1605 88.6709 72.2391V74.1923C88.6709 75.2709 87.7973 76.1455 86.7177 76.1455Z" fill="url(#paint8_radial_7623_3941)"/>
<path d="M65.2327 68.1635H61.3263C60.2467 68.1635 59.3731 67.2889 59.3731 66.2103C59.3731 65.1317 60.2467 64.2571 61.3263 64.2571H65.2327C66.3123 64.2571 67.1859 65.1317 67.1859 66.2103C67.1859 67.2889 66.3123 68.1635 65.2327 68.1635Z" fill="url(#paint9_linear_7623_3941)"/>
<path d="M88.671 68.1635H84.7646C83.685 68.1635 82.8114 67.2889 82.8114 66.2103C82.8114 65.1317 83.685 64.2571 84.7646 64.2571H88.671C89.7506 64.2571 90.6242 65.1317 90.6242 66.2103C90.6242 67.2889 89.7508 68.1635 88.671 68.1635Z" fill="url(#paint10_linear_7623_3941)"/>
<path d="M74.9987 89.6482C72.069 89.6482 69.3643 88.7078 67.7677 87.1324C66.9991 86.3751 66.9914 85.1381 67.7487 84.3704C68.506 83.6028 69.7459 83.5942 70.5107 84.3515C71.161 84.9934 72.727 85.742 74.9989 85.742C77.2705 85.742 78.8365 84.9934 79.4871 84.3515C80.2521 83.5942 81.4918 83.6028 82.2491 84.3704C83.0063 85.1381 82.9987 86.3751 82.2301 87.1324C80.633 88.708 77.9283 89.6482 74.9987 89.6482Z" fill="#B67F5F"/>
<path d="M45.7004 71.0355L50.0632 70.5222C52.0306 70.2907 53.5132 68.6235 53.5132 66.6425V48.6313H45.7004V71.0355Z" fill="url(#paint11_linear_7623_3941)"/>
<path d="M104.296 71.0355L99.9332 70.5222C97.9658 70.2907 96.4832 68.6235 96.4832 66.6425V48.6313H104.296V71.0355Z" fill="url(#paint12_linear_7623_3941)"/>
<path d="M107.072 49.5556C100.646 38.5031 88.705 31.0525 74.9987 31.0525C61.6061 31.0525 49.9062 38.1707 43.3804 48.806V49.3784C49.6747 52.2365 60.6791 56.5479 72.673 58.1273C73.7177 58.2648 74.5188 57.2037 74.1256 56.226L72.8828 53.1356C72.4762 52.1245 73.3344 51.0661 74.4085 51.2511C79.8912 52.1952 93.6102 55.5233 104.297 66.2098L107.072 49.5556Z" fill="url(#paint13_linear_7623_3941)"/>
<path d="M74.9987 31.0525C61.6061 31.0525 49.9062 38.1707 43.3804 48.806V49.3784C44.8567 50.0487 46.6124 50.8022 48.5593 51.5785C54.0952 42.7854 63.8626 36.9121 74.9987 36.9121C89.5726 36.9121 101.813 46.9542 105.253 60.4725L107.072 49.5556C100.646 38.5031 88.705 31.0525 74.9987 31.0525Z" fill="url(#paint14_linear_7623_3941)"/>
<path d="M74.9984 29.0994C53.4579 29.0994 35.9344 46.6238 35.9344 68.1633V73.6996C35.9344 88.1358 42.2689 101.749 53.3111 111.051L73.0452 127.669V152.15H76.9516V127.669L96.6856 111.05V111.049C107.728 101.749 114.062 88.1358 114.062 73.6994V68.1633C114.062 46.6238 96.539 29.0994 74.9984 29.0994ZM110.156 73.6994C110.156 86.9807 104.329 99.5048 94.1679 108.061L74.9984 124.206L55.8288 108.062C45.668 99.5048 39.8408 86.9807 39.8408 73.6994V68.1633C39.8408 48.7772 55.6132 33.0058 74.9984 33.0058C94.3835 33.0058 110.156 48.7772 110.156 68.1633V73.6994Z" fill="url(#paint15_linear_7623_3941)"/>
<path d="M74.9986 126.759C72.85 126.759 71.0922 128.516 71.0922 130.665V134.571C71.0922 136.72 72.85 138.478 74.9986 138.478C77.1472 138.478 78.905 136.72 78.905 134.571V130.665C78.905 128.516 77.1472 126.759 74.9986 126.759Z" fill="url(#paint16_linear_7623_3941)"/>
<path d="M44.3749 134.688L31.5853 123.319C30.6502 124.249 29.8907 125.337 29.3144 126.526L41.781 137.608C43.0303 138.719 43.7477 140.315 43.7477 141.987V152.151H47.6541V141.987C47.6538 139.2 46.4598 136.539 44.3749 134.688Z" fill="url(#paint17_linear_7623_3941)"/>
<path d="M105.622 134.688L118.412 123.319C119.347 124.249 120.106 125.337 120.683 126.526L108.216 137.608C106.967 138.719 106.25 140.315 106.25 141.987V152.151H102.343V141.987C102.344 139.2 103.537 136.539 105.622 134.688Z" fill="url(#paint18_linear_7623_3941)"/>
</g>
<defs>
<radialGradient id="paint0_radial_7623_3941" cx="0" cy="0" r="1" gradientUnits="userSpaceOnUse" gradientTransform="translate(23.4375 15.625) rotate(50.4206) scale(152.045)">
<stop offset="0.552731" stop-color="#E3D7D2"/>
<stop offset="1" stop-color="#D3AE9E"/>
</radialGradient>
<linearGradient id="paint1_linear_7623_3941" x1="74.9984" y1="31.0525" x2="74.9984" y2="126.759" gradientUnits="userSpaceOnUse">
<stop stop-color="#78A8EB"/>
<stop offset="1" stop-color="#99BBEB"/>
</linearGradient>
<linearGradient id="paint2_linear_7623_3941" x1="62.5" y1="107.813" x2="76.7089" y2="126.228" gradientUnits="userSpaceOnUse">
<stop stop-color="#E6AC82"/>
<stop offset="1" stop-color="#F2CBAF"/>
</linearGradient>
<linearGradient id="paint3_linear_7623_3941" x1="74.9985" y1="113.923" x2="74.9985" y2="152.151" gradientUnits="userSpaceOnUse">
<stop stop-color="#78A8EB"/>
<stop offset="1" stop-color="#99BBEB"/>
</linearGradient>
<linearGradient id="paint4_linear_7623_3941" x1="62.4962" y1="103.321" x2="73.7548" y2="118.103" gradientUnits="userSpaceOnUse">
<stop stop-color="#E6A470"/>
<stop offset="1" stop-color="#E6A370" stop-opacity="0"/>
</linearGradient>
<linearGradient id="paint5_linear_7623_3941" x1="57.8086" y1="59.1628" x2="95.0714" y2="95.5208" gradientUnits="userSpaceOnUse">
<stop stop-color="#F3B68A"/>
<stop offset="1" stop-color="#FED5B8"/>
</linearGradient>
<linearGradient id="paint6_linear_7623_3941" x1="52.2186" y1="49.44" x2="70.5412" y2="103.835" gradientUnits="userSpaceOnUse">
<stop stop-color="#EBA873"/>
<stop offset="1" stop-color="#EBA773" stop-opacity="0"/>
</linearGradient>
<radialGradient id="paint7_radial_7623_3941" cx="0" cy="0" r="1" gradientUnits="userSpaceOnUse" gradientTransform="translate(62.5015 72.0383) rotate(71.565) scale(4.94093 3.29396)">
<stop stop-color="#040404"/>
<stop offset="1" stop-color="#767676"/>
</radialGradient>
<radialGradient id="paint8_radial_7623_3941" cx="0" cy="0" r="1" gradientUnits="userSpaceOnUse" gradientTransform="translate(85.9398 72.0383) rotate(71.565) scale(4.94093 3.29395)">
<stop stop-color="#040404"/>
<stop offset="1" stop-color="#767676"/>
</radialGradient>
<linearGradient id="paint9_linear_7623_3941" x1="60.9375" y1="64.0625" x2="63.2795" y2="68.1635" gradientUnits="userSpaceOnUse">
<stop stop-color="#6E5A64"/>
<stop offset="1" stop-color="#6E5A64" stop-opacity="0.86"/>
</linearGradient>
<linearGradient id="paint10_linear_7623_3941" x1="84.3758" y1="64.0625" x2="86.7178" y2="68.1635" gradientUnits="userSpaceOnUse">
<stop stop-color="#6E5A64"/>
<stop offset="1" stop-color="#6E5A64" stop-opacity="0.86"/>
</linearGradient>
<linearGradient id="paint11_linear_7623_3941" x1="48.4373" y1="51.5626" x2="47.9922" y2="71.7845" gradientUnits="userSpaceOnUse">
<stop stop-color="#473A41"/>
<stop offset="1" stop-color="#6E5A64"/>
</linearGradient>
<linearGradient id="paint12_linear_7623_3941" x1="99.2201" y1="51.5626" x2="98.775" y2="71.7845" gradientUnits="userSpaceOnUse">
<stop stop-color="#473A41"/>
<stop offset="1" stop-color="#6E5A64"/>
</linearGradient>
<linearGradient id="paint13_linear_7623_3941" x1="54.6877" y1="42.1876" x2="98.9513" y2="70.0506" gradientUnits="userSpaceOnUse">
<stop stop-color="#473A41"/>
<stop offset="1" stop-color="#6E5A64"/>
</linearGradient>
<linearGradient id="paint14_linear_7623_3941" x1="75.0002" y1="34.3751" x2="87.5002" y2="57.8126" gradientUnits="userSpaceOnUse">
<stop stop-color="#64505A"/>
<stop offset="1" stop-color="#64505A" stop-opacity="0"/>
</linearGradient>
<linearGradient id="paint15_linear_7623_3941" x1="74.9984" y1="29.0994" x2="74.9984" y2="152.15" gradientUnits="userSpaceOnUse">
<stop stop-color="#A5CDFF"/>
<stop offset="0.600905" stop-color="#BDDAFF"/>
</linearGradient>
<linearGradient id="paint16_linear_7623_3941" x1="74.9986" y1="126.759" x2="74.9986" y2="138.478" gradientUnits="userSpaceOnUse">
<stop stop-color="#473A41"/>
<stop offset="1" stop-color="#6E5A64"/>
</linearGradient>
<linearGradient id="paint17_linear_7623_3941" x1="38.4842" y1="123.319" x2="38.4842" y2="152.151" gradientUnits="userSpaceOnUse">
<stop offset="0.21875" stop-color="#A5CDFF"/>
<stop offset="1" stop-color="#D9EAFF"/>
</linearGradient>
<linearGradient id="paint18_linear_7623_3941" x1="111.513" y1="123.319" x2="111.513" y2="152.151" gradientUnits="userSpaceOnUse">
<stop offset="0.21875" stop-color="#A5CDFF"/>
<stop offset="1" stop-color="#D9EAFF"/>
</linearGradient>
</defs>
</svg>
