<svg width="150" height="150" viewBox="0 0 150 150" fill="none" xmlns="http://www.w3.org/2000/svg">
<mask id="mask0_7786_1409" style="mask-type:alpha" maskUnits="userSpaceOnUse" x="0" y="0" width="150" height="150">
<circle cx="75" cy="75" r="75" fill="#C4C4C4"/>
</mask>
<g mask="url(#mask0_7786_1409)">
<path d="M113.463 118.425L93.4146 112.528L78.2491 122.639C76.2808 123.951 73.7167 123.951 71.7485 122.639L56.5829 112.528L36.5344 118.425C31.5469 119.892 28.1219 124.469 28.1219 129.668V144.337C28.1219 147.574 30.7455 150.197 33.9814 150.197H116.016C119.252 150.197 121.875 147.573 121.875 144.337V129.668C121.876 124.469 118.451 119.892 113.463 118.425Z" fill="url(#paint0_linear_7786_1409)"/>
<path d="M96.4841 95.5078H53.5138C47.0413 95.5078 41.7946 100.755 41.7946 107.227C41.7946 120.172 52.2881 130.665 65.2328 130.665H84.7646C97.7093 130.665 108.203 120.171 108.203 107.227C108.203 100.755 102.956 95.5078 96.4841 95.5078Z" fill="url(#paint1_linear_7786_1409)"/>
<path d="M95.9642 101.367C100.216 101.367 101.885 106.881 98.3478 109.24L78.2491 122.639C76.2809 123.951 73.7167 123.951 71.7485 122.639L51.6498 109.24C48.1122 106.881 49.7819 101.367 54.0334 101.367H95.9642Z" fill="url(#paint2_linear_7786_1409)"/>
<path d="M56.583 112.528L71.7486 122.639C73.717 123.951 76.281 123.951 78.2492 122.639L93.4148 112.528H93.415L92.8777 112.37C90.384 111.637 88.6716 109.348 88.6716 106.749V97.4609H61.3265V106.749C61.3265 109.348 59.614 111.637 57.1203 112.37L56.583 112.528Z" fill="url(#paint3_linear_7786_1409)"/>
<path d="M61.3266 101.82C65.4301 104.012 70.0835 105.274 74.9989 105.274C79.9143 105.274 84.5677 104.012 88.6712 101.82V97.4609H61.3266V101.82Z" fill="url(#paint4_linear_7786_1409)"/>
<path d="M101.367 68.1626H100.391V44.7244L49.6074 48.6308V68.1626H48.6308C45.9339 68.1626 43.7477 70.3486 43.7477 73.0457C43.7477 75.7425 45.9337 77.9287 48.6308 77.9287H49.7061C50.7069 91.0363 61.6352 101.367 74.9992 101.367C88.3632 101.367 99.2914 91.0363 100.292 77.9287H101.367C104.064 77.9287 106.25 75.7425 106.25 73.0457C106.25 70.3489 104.064 68.1626 101.367 68.1626Z" fill="url(#paint5_linear_7786_1409)"/>
<path d="M92.5774 48.6313V46.6782L49.6071 48.6313V68.1631H48.9092C46.3551 68.1631 44.0273 70.0008 43.773 72.5424C43.4802 75.4652 45.7677 77.9293 48.6307 77.9293H49.706C50.7064 91.0368 61.6347 101.368 74.9987 101.368C76.3346 101.368 77.6375 101.237 78.9174 101.038C66.7477 99.1603 57.4199 88.6718 57.4199 75.9762V60.3505C57.4199 56.0357 60.9177 52.5377 65.2327 52.5377H88.671C90.8284 52.5377 92.5774 50.7887 92.5774 48.6313Z" fill="url(#paint6_linear_7786_1409)"/>
<path d="M63.2797 74.0226C62.2002 74.0226 61.3266 73.1481 61.3266 72.0695V70.1164C61.3266 69.0378 62.2002 68.1633 63.2797 68.1633C64.3592 68.1633 65.2328 69.0378 65.2328 70.1164V72.0695C65.233 73.1481 64.3594 74.0226 63.2797 74.0226Z" fill="url(#paint7_radial_7786_1409)"/>
<path d="M86.7183 74.0226C85.6388 74.0226 84.7652 73.1481 84.7652 72.0695V70.1164C84.7652 69.0378 85.6388 68.1633 86.7183 68.1633C87.7978 68.1633 88.6714 69.0378 88.6714 70.1164V72.0695C88.6714 73.1481 87.7978 74.0226 86.7183 74.0226Z" fill="url(#paint8_radial_7786_1409)"/>
<path d="M61.3248 66.2102C60.4035 66.2102 59.5832 65.5561 59.4078 64.6166C59.2074 63.5571 59.9055 62.5365 60.9662 62.3373L64.8726 61.6048C65.9503 61.4025 66.9555 62.1055 67.1519 63.165C67.3523 64.2245 66.6542 65.2452 65.5935 65.4444L61.6871 66.1769C61.5649 66.1997 61.443 66.2102 61.3248 66.2102Z" fill="url(#paint9_linear_7786_1409)"/>
<path d="M88.673 66.21C88.5548 66.21 88.4326 66.1995 88.3107 66.1767L84.4043 65.4441C83.3439 65.2447 82.6457 64.2243 82.8459 63.1648C83.0441 62.1053 84.0513 61.4032 85.1252 61.6045L89.0316 62.3371C90.0921 62.5365 90.7902 63.5569 90.59 64.6164C90.4146 65.5556 89.5945 66.21 88.673 66.21Z" fill="url(#paint10_linear_7786_1409)"/>
<path d="M67.1858 31.0525C57.4774 31.0525 49.6071 38.9228 49.6071 48.6312H90.624C99.5897 48.6312 106.988 41.9193 108.067 33.2462C108.212 32.0827 107.287 31.0525 106.114 31.0525C106.114 31.0525 67.1858 31.0525 67.1858 31.0525Z" fill="url(#paint11_linear_7786_1409)"/>
<path d="M106.115 31.0525H71.7742C69.0262 33.2737 66.9589 36.3032 65.9394 39.781C65.214 42.2551 67.1374 44.7248 69.7157 44.7248H101.647C105.106 41.9333 107.495 37.8707 108.069 33.2357C108.213 32.0759 107.284 31.0525 106.115 31.0525Z" fill="url(#paint12_linear_7786_1409)"/>
<path d="M67.1861 150.197H63.2797V126.759C63.2797 125.68 64.1542 124.806 65.2328 124.806C66.3116 124.806 67.1859 125.681 67.1859 126.759L67.1861 150.197Z" fill="url(#paint13_linear_7786_1409)"/>
<path d="M86.7181 150.197H82.8116V126.759C82.8116 125.68 83.6861 124.806 84.7647 124.806C85.8435 124.806 86.7178 125.681 86.7178 126.759L86.7181 150.197Z" fill="url(#paint14_linear_7786_1409)"/>
<path d="M74.9988 87.6951C72.0691 87.6951 69.3643 86.7547 67.7678 85.1793C66.9991 84.4221 66.9914 83.1851 67.7487 82.4174C68.5059 81.6497 69.7457 81.6411 70.5106 82.3983C71.161 83.0401 72.7271 83.7887 74.9988 83.7887C77.2705 83.7887 78.8366 83.0401 79.487 82.3983C80.2519 81.6411 81.4917 81.6497 82.249 82.4174C83.0062 83.1851 82.9985 84.4221 82.2299 85.1793C80.6335 86.7547 77.9286 87.6951 74.9988 87.6951Z" fill="#A06E50"/>
</g>
<defs>
<linearGradient id="paint0_linear_7786_1409" x1="34.375" y1="120.313" x2="123.437" y2="140.625" gradientUnits="userSpaceOnUse">
<stop stop-color="#C4EB99"/>
<stop offset="1" stop-color="#D1FAA3"/>
</linearGradient>
<linearGradient id="paint1_linear_7786_1409" x1="45.3127" y1="100" x2="106.25" y2="125" gradientUnits="userSpaceOnUse">
<stop stop-color="#ACE694"/>
<stop offset="1" stop-color="#B4F09B"/>
</linearGradient>
<linearGradient id="paint2_linear_7786_1409" x1="53.125" y1="103.125" x2="98.4375" y2="114.062" gradientUnits="userSpaceOnUse">
<stop stop-color="#5DCC94"/>
<stop offset="1" stop-color="#69E8A9"/>
</linearGradient>
<linearGradient id="paint3_linear_7786_1409" x1="62.5" y1="100" x2="89.0625" y2="123.438" gradientUnits="userSpaceOnUse">
<stop stop-color="#C98D69"/>
<stop offset="1" stop-color="#D49774"/>
</linearGradient>
<linearGradient id="paint4_linear_7786_1409" x1="62.5" y1="100" x2="89.0625" y2="106.25" gradientUnits="userSpaceOnUse">
<stop stop-color="#A06E50"/>
<stop offset="1" stop-color="#A06E50" stop-opacity="0"/>
</linearGradient>
<linearGradient id="paint5_linear_7786_1409" x1="50" y1="48.4376" x2="95.3125" y2="96.8751" gradientUnits="userSpaceOnUse">
<stop offset="0.307876" stop-color="#CD916E"/>
<stop offset="1" stop-color="#EBB798"/>
</linearGradient>
<linearGradient id="paint6_linear_7786_1409" x1="48.4373" y1="45.3126" x2="68.1625" y2="101.368" gradientUnits="userSpaceOnUse">
<stop stop-color="#B67F5F"/>
<stop offset="1" stop-color="#B67F5F" stop-opacity="0"/>
</linearGradient>
<radialGradient id="paint7_radial_7786_1409" cx="0" cy="0" r="1" gradientUnits="userSpaceOnUse" gradientTransform="translate(62.5018 69.9157) rotate(71.565) scale(4.94066 3.29378)">
<stop stop-color="#040404"/>
<stop offset="1" stop-color="#767676"/>
</radialGradient>
<radialGradient id="paint8_radial_7786_1409" cx="0" cy="0" r="1" gradientUnits="userSpaceOnUse" gradientTransform="translate(85.9404 69.9157) rotate(71.565) scale(4.94066 3.29378)">
<stop stop-color="#040404"/>
<stop offset="1" stop-color="#767676"/>
</radialGradient>
<linearGradient id="paint9_linear_7786_1409" x1="63.2799" y1="61.5701" x2="63.2799" y2="66.2102" gradientUnits="userSpaceOnUse">
<stop stop-color="#4C3D45"/>
<stop offset="1" stop-color="#6B5560" stop-opacity="0.76"/>
</linearGradient>
<linearGradient id="paint10_linear_7786_1409" x1="86.718" y1="61.5701" x2="86.718" y2="66.21" gradientUnits="userSpaceOnUse">
<stop stop-color="#4C3D45"/>
<stop offset="1" stop-color="#6B5560" stop-opacity="0.76"/>
</linearGradient>
<linearGradient id="paint11_linear_7786_1409" x1="51.0127" y1="43.0824" x2="105.438" y2="24.3889" gradientUnits="userSpaceOnUse">
<stop stop-color="#4D3D45"/>
<stop offset="1" stop-color="#78606C"/>
</linearGradient>
<linearGradient id="paint12_linear_7786_1409" x1="66.337" y1="41.8789" x2="105.033" y2="26.8409" gradientUnits="userSpaceOnUse">
<stop stop-color="#8A6F7D"/>
<stop offset="1" stop-color="#6E5A64" stop-opacity="0"/>
</linearGradient>
<linearGradient id="paint13_linear_7786_1409" x1="64.0627" y1="135.937" x2="67.1877" y2="135.937" gradientUnits="userSpaceOnUse">
<stop stop-color="#FFD164"/>
<stop offset="1" stop-color="#FFBE64"/>
</linearGradient>
<linearGradient id="paint14_linear_7786_1409" x1="83.5946" y1="135.937" x2="86.7196" y2="135.937" gradientUnits="userSpaceOnUse">
<stop stop-color="#FFD164"/>
<stop offset="1" stop-color="#FFBE64"/>
</linearGradient>
</defs>
</svg>
